<svg width="339" height="96" viewBox="0 0 339 96" fill="none" xmlns="http://www.w3.org/2000/svg">
<ellipse cx="49" cy="48" rx="49" ry="48" fill="#2BABE1"/>
<path d="M58.4368 21.9375C58.4368 16.4491 53.9878 12 48.4995 12C43.0112 12 38.5622 16.4491 38.5622 21.9375C38.5622 27.4259 43.0112 31.8749 48.4995 31.8749C53.9878 31.8749 58.4368 27.4259 58.4368 21.9375ZM46.1797 36.9576C40.0383 33.1979 30.0906 32.1648 25.0847 31.8801C23.4026 31.7849 22 33.0664 22 34.6844V57.7476C22 59.231 23.1997 60.468 24.7421 60.5477C29.2615 60.7847 38.4048 61.6532 44.7243 64.8363C45.6943 65.3249 46.8443 64.6593 46.8443 63.6076V38.1438C46.8433 37.6604 46.6041 37.2174 46.1797 36.9576ZM71.9143 31.8801C66.9094 32.1638 56.9607 33.1979 50.8203 36.9576C50.3959 37.2174 50.1567 37.678 50.1567 38.1614V63.6045C50.1567 64.6593 51.3099 65.3259 52.2829 64.8363C58.6014 61.6563 67.7396 60.7878 72.2579 60.5508C73.8003 60.47 75 59.233 75 57.7496V34.6844C74.999 33.0664 73.5964 31.7849 71.9143 31.8801V31.8801Z" fill="white"/>
<path d="M42.5758 82.768H37.8598L37.1038 85H33.8818L38.4538 72.364H42.0178L46.5898 85H43.3318L42.5758 82.768ZM41.7838 80.392L40.2178 75.766L38.6698 80.392H41.7838ZM57.6112 76.432C57.6112 77.164 57.4432 77.836 57.1072 78.448C56.7712 79.048 56.2552 79.534 55.5592 79.906C54.8632 80.278 53.9992 80.464 52.9672 80.464H51.0592V85H47.9812V72.364H52.9672C53.9752 72.364 54.8272 72.538 55.5232 72.886C56.2192 73.234 56.7412 73.714 57.0892 74.326C57.4372 74.938 57.6112 75.64 57.6112 76.432ZM52.7332 78.016C53.3212 78.016 53.7592 77.878 54.0472 77.602C54.3352 77.326 54.4792 76.936 54.4792 76.432C54.4792 75.928 54.3352 75.538 54.0472 75.262C53.7592 74.986 53.3212 74.848 52.7332 74.848H51.0592V78.016H52.7332ZM62.2917 72.364V85H59.2137V72.364H62.2917Z" fill="white"/>
<path d="M131.91 44.72C131.91 45.94 131.63 47.06 131.07 48.08C130.51 49.08 129.65 49.89 128.49 50.51C127.33 51.13 125.89 51.44 124.17 51.44H120.99V59H115.86V37.94H124.17C125.85 37.94 127.27 38.23 128.43 38.81C129.59 39.39 130.46 40.19 131.04 41.21C131.62 42.23 131.91 43.4 131.91 44.72ZM123.78 47.36C124.76 47.36 125.49 47.13 125.97 46.67C126.45 46.21 126.69 45.56 126.69 44.72C126.69 43.88 126.45 43.23 125.97 42.77C125.49 42.31 124.76 42.08 123.78 42.08H120.99V47.36H123.78ZM133.561 50.6C133.561 48.88 133.881 47.37 134.521 46.07C135.181 44.77 136.071 43.77 137.191 43.07C138.311 42.37 139.561 42.02 140.941 42.02C142.121 42.02 143.151 42.26 144.031 42.74C144.931 43.22 145.621 43.85 146.101 44.63V42.26H151.231V59H146.101V56.63C145.601 57.41 144.901 58.04 144.001 58.52C143.121 59 142.091 59.24 140.911 59.24C139.551 59.24 138.311 58.89 137.191 58.19C136.071 57.47 135.181 56.46 134.521 55.16C133.881 53.84 133.561 52.32 133.561 50.6ZM146.101 50.63C146.101 49.35 145.741 48.34 145.021 47.6C144.321 46.86 143.461 46.49 142.441 46.49C141.421 46.49 140.551 46.86 139.831 47.6C139.131 48.32 138.781 49.32 138.781 50.6C138.781 51.88 139.131 52.9 139.831 53.66C140.551 54.4 141.421 54.77 142.441 54.77C143.461 54.77 144.321 54.4 145.021 53.66C145.741 52.92 146.101 51.91 146.101 50.63ZM160.072 44.63C160.572 43.85 161.262 43.22 162.142 42.74C163.022 42.26 164.052 42.02 165.232 42.02C166.612 42.02 167.862 42.37 168.982 43.07C170.102 43.77 170.982 44.77 171.622 46.07C172.282 47.37 172.612 48.88 172.612 50.6C172.612 52.32 172.282 53.84 171.622 55.16C170.982 56.46 170.102 57.47 168.982 58.19C167.862 58.89 166.612 59.24 165.232 59.24C164.072 59.24 163.042 59 162.142 58.52C161.262 58.04 160.572 57.42 160.072 56.66V66.98H154.942V42.26H160.072V44.63ZM167.392 50.6C167.392 49.32 167.032 48.32 166.312 47.6C165.612 46.86 164.742 46.49 163.702 46.49C162.682 46.49 161.812 46.86 161.092 47.6C160.392 48.34 160.042 49.35 160.042 50.63C160.042 51.91 160.392 52.92 161.092 53.66C161.812 54.4 162.682 54.77 163.702 54.77C164.722 54.77 165.592 54.4 166.312 53.66C167.032 52.9 167.392 51.88 167.392 50.6ZM191.083 50.36C191.083 50.84 191.053 51.34 190.993 51.86H179.383C179.463 52.9 179.793 53.7 180.373 54.26C180.973 54.8 181.703 55.07 182.563 55.07C183.843 55.07 184.733 54.53 185.233 53.45H190.693C190.413 54.55 189.903 55.54 189.163 56.42C188.443 57.3 187.533 57.99 186.433 58.49C185.333 58.99 184.103 59.24 182.743 59.24C181.103 59.24 179.643 58.89 178.363 58.19C177.083 57.49 176.083 56.49 175.363 55.19C174.643 53.89 174.283 52.37 174.283 50.63C174.283 48.89 174.633 47.37 175.333 46.07C176.053 44.77 177.053 43.77 178.333 43.07C179.613 42.37 181.083 42.02 182.743 42.02C184.363 42.02 185.803 42.36 187.063 43.04C188.323 43.72 189.303 44.69 190.003 45.95C190.723 47.21 191.083 48.68 191.083 50.36ZM185.833 49.01C185.833 48.13 185.533 47.43 184.933 46.91C184.333 46.39 183.583 46.13 182.683 46.13C181.823 46.13 181.093 46.38 180.493 46.88C179.913 47.38 179.553 48.09 179.413 49.01H185.833ZM198.92 45.05C199.52 44.13 200.27 43.41 201.17 42.89C202.07 42.35 203.07 42.08 204.17 42.08V47.51H202.76C201.48 47.51 200.52 47.79 199.88 48.35C199.24 48.89 198.92 49.85 198.92 51.23V59H193.79V42.26H198.92V45.05ZM211.752 44.63C212.232 43.85 212.922 43.22 213.822 42.74C214.722 42.26 215.752 42.02 216.912 42.02C218.292 42.02 219.542 42.37 220.662 43.07C221.782 43.77 222.662 44.77 223.302 46.07C223.962 47.37 224.292 48.88 224.292 50.6C224.292 52.32 223.962 53.84 223.302 55.16C222.662 56.46 221.782 57.47 220.662 58.19C219.542 58.89 218.292 59.24 216.912 59.24C215.732 59.24 214.702 59.01 213.822 58.55C212.942 58.07 212.252 57.44 211.752 56.66V59H206.622V36.8H211.752V44.63ZM219.072 50.6C219.072 49.32 218.712 48.32 217.992 47.6C217.292 46.86 216.422 46.49 215.382 46.49C214.362 46.49 213.492 46.86 212.772 47.6C212.072 48.34 211.722 49.35 211.722 50.63C211.722 51.91 212.072 52.92 212.772 53.66C213.492 54.4 214.362 54.77 215.382 54.77C216.402 54.77 217.272 54.4 217.992 53.66C218.712 52.9 219.072 51.88 219.072 50.6ZM234.603 59.24C232.963 59.24 231.483 58.89 230.163 58.19C228.863 57.49 227.833 56.49 227.073 55.19C226.333 53.89 225.963 52.37 225.963 50.63C225.963 48.91 226.343 47.4 227.103 46.1C227.863 44.78 228.903 43.77 230.223 43.07C231.543 42.37 233.023 42.02 234.663 42.02C236.303 42.02 237.783 42.37 239.103 43.07C240.423 43.77 241.463 44.78 242.223 46.1C242.983 47.4 243.363 48.91 243.363 50.63C243.363 52.35 242.973 53.87 242.193 55.19C241.433 56.49 240.383 57.49 239.043 58.19C237.723 58.89 236.243 59.24 234.603 59.24ZM234.603 54.8C235.583 54.8 236.413 54.44 237.093 53.72C237.793 53 238.143 51.97 238.143 50.63C238.143 49.29 237.803 48.26 237.123 47.54C236.463 46.82 235.643 46.46 234.663 46.46C233.663 46.46 232.833 46.82 232.173 47.54C231.513 48.24 231.183 49.27 231.183 50.63C231.183 51.97 231.503 53 232.143 53.72C232.803 54.44 233.623 54.8 234.603 54.8ZM253.705 59.24C252.065 59.24 250.585 58.89 249.265 58.19C247.965 57.49 246.935 56.49 246.175 55.19C245.435 53.89 245.065 52.37 245.065 50.63C245.065 48.91 245.445 47.4 246.205 46.1C246.965 44.78 248.005 43.77 249.325 43.07C250.645 42.37 252.125 42.02 253.765 42.02C255.405 42.02 256.885 42.37 258.205 43.07C259.525 43.77 260.565 44.78 261.325 46.1C262.085 47.4 262.465 48.91 262.465 50.63C262.465 52.35 262.075 53.87 261.295 55.19C260.535 56.49 259.485 57.49 258.145 58.19C256.825 58.89 255.345 59.24 253.705 59.24ZM253.705 54.8C254.685 54.8 255.515 54.44 256.195 53.72C256.895 53 257.245 51.97 257.245 50.63C257.245 49.29 256.905 48.26 256.225 47.54C255.565 46.82 254.745 46.46 253.765 46.46C252.765 46.46 251.935 46.82 251.275 47.54C250.615 48.24 250.285 49.27 250.285 50.63C250.285 51.97 250.605 53 251.245 53.72C251.905 54.44 252.725 54.8 253.705 54.8ZM275.416 59L270.316 51.98V59H265.186V36.8H270.316V49.07L275.386 42.26H281.716L274.756 50.66L281.776 59H275.416ZM303.199 55.28H295.339L294.079 59H288.709L296.329 37.94H302.269L309.889 59H304.459L303.199 55.28ZM301.879 51.32L299.269 43.61L296.689 51.32H301.879ZM328.258 44.72C328.258 45.94 327.978 47.06 327.418 48.08C326.858 49.08 325.998 49.89 324.838 50.51C323.678 51.13 322.238 51.44 320.518 51.44H317.338V59H312.208V37.94H320.518C322.198 37.94 323.618 38.23 324.778 38.81C325.938 39.39 326.808 40.19 327.388 41.21C327.968 42.23 328.258 43.4 328.258 44.72ZM320.128 47.36C321.108 47.36 321.838 47.13 322.318 46.67C322.798 46.21 323.038 45.56 323.038 44.72C323.038 43.88 322.798 43.23 322.318 42.77C321.838 42.31 321.108 42.08 320.128 42.08H317.338V47.36H320.128ZM336.058 37.94V59H330.928V37.94H336.058Z" fill="#2BABE1"/>
</svg>
