<svg width="6524" height="800" viewBox="0 0 6524 800" fill="none" xmlns="http://www.w3.org/2000/svg">
<path fill-rule="evenodd" clip-rule="evenodd" d="M3498.59 11.9236C3492.97 11.9236 3487.75 13.128 3482.93 14.7337C3493.17 21.5585 3498.79 30.5912 3501.6 40.8283C3501.8 42.2334 3502.2 43.237 3502.4 44.6421C3502.6 45.8464 3502.8 47.0508 3502.8 48.2552C3503.6 65.9191 3498.18 68.1271 3494.37 78.5649C3488.55 92.0137 3490.16 106.466 3497.18 118.108C3497.78 119.513 3498.59 121.119 3499.59 122.524C3491.96 71.7402 3534.32 64.1126 3542.14 48.2552C3542.75 34.405 3531.3 25.1716 3522.27 18.7483C3513.64 13.5294 3505.81 11.9236 3498.59 11.9236ZM3562.42 23.365C3561.61 27.9817 3562.22 26.7774 3562.02 29.1861C3561.82 30.7919 3561.82 32.7992 3561.62 34.405C3561.21 36.0108 3560.81 37.6166 3560.21 39.2225C3559.81 40.8283 3559.21 42.4341 3558.6 44.0399C3557.8 45.6458 3557.2 47.0508 3556.4 48.6566C3555.79 49.4599 3555.39 50.2624 3554.79 51.0654C3554.39 51.6675 3553.99 52.2697 3553.59 52.8719C3552.58 54.2771 3551.58 55.6821 3550.58 56.8864C3549.37 58.0908 3548.37 59.4959 3546.96 60.4996V60.7006C3545.76 61.7042 3544.55 62.9086 3543.15 63.9122C3538.93 67.1238 3534.12 69.5325 3529.7 72.5435C3528.29 73.5471 3526.89 74.35 3525.68 75.5544C3524.28 76.558 3523.08 77.5616 3521.87 78.766C3520.47 79.9703 3519.46 81.1747 3518.26 82.5798C3517.25 83.7842 3516.05 85.1893 3515.25 86.5944C3514.24 87.9994 3513.24 89.4045 3512.44 90.8096C3511.63 92.4154 3511.03 93.8205 3510.23 95.4263C3509.63 97.0321 3509.02 98.4372 3508.62 100.043C3508.02 101.85 3507.62 103.455 3507.22 105.061C3507.02 105.864 3507.02 106.868 3506.82 107.671C3506.62 108.474 3506.62 109.276 3506.42 110.079C3506.42 111.685 3506.21 113.492 3506.21 115.098C3506.21 116.302 3506.21 117.506 3506.42 118.711C3506.42 120.316 3506.62 121.922 3507.02 123.729C3507.22 125.335 3507.62 126.94 3508.02 128.546C3508.62 130.152 3509.03 131.758 3509.63 133.364C3510.03 134.367 3510.63 135.371 3511.03 136.174L3464.87 118.309C3457.04 116.101 3449.41 114.094 3441.58 112.287C3437.37 111.284 3433.15 110.28 3428.93 109.276C3416.89 106.868 3404.65 105.061 3392.4 103.857C3392 103.857 3391.8 103.656 3391.4 103.656C3379.36 102.452 3367.51 101.849 3355.47 101.849C3346.64 101.849 3337.8 102.25 3329.17 102.853C3316.93 103.656 3304.68 105.262 3292.44 107.269C3289.43 107.67 3286.42 108.273 3283.41 108.875C3277.19 110.079 3271.16 111.484 3265.34 112.889C3262.33 113.693 3259.32 114.495 3256.31 115.298C3253.3 116.502 3250.49 117.908 3247.68 119.112C3245.47 120.116 3243.26 121.119 3241.05 122.123C3240.65 122.324 3240.25 122.324 3240.05 122.524C3238.04 123.528 3236.24 124.33 3234.43 125.334C3233.83 125.535 3233.43 125.735 3233.03 125.936C3230.82 126.94 3228.61 128.144 3226.8 129.148C3225.4 129.75 3223.99 130.553 3222.79 131.155C3222.19 131.556 3221.38 131.958 3220.98 132.159C3219.18 133.162 3217.37 134.166 3215.76 135.17C3213.96 136.173 3212.35 137.177 3210.95 138.181C3209.54 139.184 3208.14 139.987 3206.93 140.991C3206.73 141.192 3206.53 141.192 3206.33 141.392C3205.12 142.195 3203.72 143.198 3202.51 144.202C3202.51 144.202 3202.31 144.403 3202.11 144.603C3201.11 145.407 3200.11 146.209 3199.1 147.012C3198.7 147.213 3198.3 147.614 3197.9 147.815C3196.89 148.618 3195.89 149.622 3194.89 150.425C3194.69 150.826 3194.29 151.027 3194.08 151.228C3192.88 152.432 3191.68 153.436 3190.47 154.64C3190.27 154.64 3190.27 154.841 3190.07 155.041C3188.87 156.045 3187.66 157.249 3186.46 158.454C3186.26 158.655 3186.26 158.855 3186.06 158.855C3185.05 159.859 3184.05 160.862 3183.04 162.067C3182.64 162.468 3182.04 162.87 3181.64 163.271C3180.64 164.475 3179.43 165.68 3178.23 166.884C3178.03 167.285 3177.63 167.486 3177.42 167.888C3175.82 169.494 3174.41 171.099 3172.81 172.705C3172.61 172.906 3172.41 173.106 3172.21 173.307C3168.99 176.72 3165.58 180.132 3161.97 183.143C3158.36 186.354 3154.54 189.365 3150.73 191.975C3146.71 194.785 3142.9 197.194 3138.68 199.602C3134.67 201.81 3130.45 203.818 3126.04 205.624C3121.82 207.431 3117.41 209.037 3112.99 210.442C3104.56 212.248 3095.93 215.661 3088.5 216.263C3086.9 216.263 3085.09 216.664 3083.48 216.865C3081.68 217.266 3080.07 217.668 3078.47 218.069C3076.86 218.672 3075.25 219.274 3073.65 219.876C3072.04 220.478 3070.44 221.281 3068.83 222.084C3067.43 223.088 3065.82 223.89 3064.41 224.894C3063.01 225.898 3061.6 227.102 3060.4 228.306C3059 229.31 3057.59 230.715 3056.39 231.92C3055.18 233.325 3053.98 234.529 3052.97 235.934C3051.97 237.54 3050.77 238.945 3049.96 240.551C3048.96 241.956 3047.96 243.562 3047.15 245.167C3046.35 246.974 3045.55 248.58 3044.94 250.386C3044.34 251.992 3043.74 253.799 3043.14 255.605C3042.74 257.211 3042.33 258.817 3042.13 260.423C3042.13 260.624 3041.93 260.824 3041.93 261.025C3041.53 262.832 3041.53 265.24 3041.33 266.445C3041.13 267.85 3040.93 269.054 3040.93 270.459C3040.93 271.262 3040.93 272.266 3041.13 273.069C3041.33 274.474 3041.53 275.678 3041.93 276.883C3042.34 278.087 3042.74 279.291 3043.34 280.496V280.697C3043.94 281.901 3044.74 283.105 3045.55 284.31C3046.35 285.514 3047.15 286.719 3048.16 287.923C3049.16 288.926 3050.36 290.131 3051.57 291.134C3052.77 292.339 3053.98 293.342 3055.38 294.346C3060.2 298.561 3061.4 299.967 3067.63 303.178C3068.63 303.78 3069.63 304.182 3070.84 304.784C3071.04 304.784 3071.24 304.985 3071.44 304.985C3071.44 305.386 3071.44 305.587 3071.64 305.989C3071.84 307.595 3072.24 309.2 3072.65 310.806C3073.05 312.613 3073.65 314.219 3074.25 315.624C3074.85 316.828 3075.26 318.032 3075.86 319.237C3076.06 319.638 3076.26 320.04 3076.46 320.24C3077.26 321.846 3078.07 323.251 3078.87 324.656C3079.87 326.061 3080.88 327.466 3081.88 328.872C3082.88 330.076 3084.09 331.481 3085.29 332.685C3086.5 333.89 3087.7 334.893 3089.11 336.098C3089.11 336.098 3089.31 336.299 3089.51 336.299C3090.71 337.302 3091.92 338.306 3093.12 339.109C3094.52 340.113 3095.93 340.915 3097.54 341.718C3098.94 342.522 3100.55 343.324 3102.15 343.926C3103.36 344.529 3104.76 344.93 3106.17 345.331C3106.37 345.533 3106.57 345.533 3106.97 345.733C3107.77 345.934 3108.78 346.134 3109.58 346.335C3108.98 357.174 3108.78 367.411 3110.38 371.024C3112.19 375.039 3121.02 362.795 3129.85 348.744C3128.65 362.594 3127.85 378.853 3129.85 383.67C3132.06 388.688 3144.1 373.031 3154.54 355.769C3296.86 322.85 3426.73 421.206 3440.38 560.109C3437.77 538.431 3411.07 526.387 3398.83 529.398C3392.81 544.252 3382.57 563.321 3366.11 575.164C3367.51 561.916 3366.91 548.266 3364.1 535.018C3359.69 553.485 3351.05 570.748 3339.21 585.602C3320.14 587.007 3301.07 577.773 3291.04 563.923C3290.23 563.321 3290.03 562.116 3289.43 561.314C3288.83 559.908 3288.23 558.503 3287.83 557.098C3287.22 555.693 3286.82 554.288 3286.62 552.883C3286.42 551.478 3286.42 550.073 3286.42 548.467C3286.42 547.463 3286.42 546.46 3286.42 545.456C3286.62 544.051 3287.02 542.646 3287.42 541.241C3287.82 539.836 3288.23 538.431 3288.83 537.026C3289.63 535.621 3290.23 534.215 3291.24 532.81C3294.65 523.175 3294.65 515.347 3288.43 510.73C3287.22 509.927 3286.02 509.325 3284.61 508.723C3283.81 508.522 3282.81 508.121 3282 507.92C3281.4 507.719 3281 507.519 3280.4 507.318C3278.99 506.916 3277.59 506.514 3276.18 506.314C3274.78 505.913 3273.37 505.712 3271.97 505.712C3270.56 505.511 3268.96 505.311 3267.55 505.311C3266.55 505.311 3265.54 505.512 3264.54 505.512C3262.93 505.512 3261.53 505.713 3260.12 506.114C3258.72 506.315 3257.31 506.515 3255.91 506.917C3254.5 507.318 3253.1 507.72 3251.69 508.322C3250.29 508.924 3249.08 509.527 3247.68 510.129C3246.48 510.731 3245.27 511.534 3243.87 512.136C3197.1 542.646 3225 614.105 3256.91 634.78C3244.87 636.988 3232.63 639.598 3229.21 642.207C3229.01 642.408 3228.81 642.608 3228.81 642.608C3237.44 647.827 3246.48 652.243 3255.91 656.057C3268.76 660.272 3282.41 664.086 3288.43 665.692V665.893C3305.09 669.305 3321.95 670.51 3339.01 669.506C3427.93 663.284 3500.8 595.639 3514.04 506.516C3514.45 508.322 3514.85 509.928 3515.25 511.735C3515.85 515.348 3516.65 519.161 3517.06 522.975V523.176C3517.46 524.983 3517.66 526.789 3517.86 528.395V529.199C3518.06 531.005 3518.26 532.812 3518.26 534.417C3518.46 536.625 3518.66 538.833 3518.66 541.042V544.253C3518.66 545.257 3518.86 546.461 3518.86 547.465C3518.86 548.669 3518.66 549.873 3518.66 551.078V553.888C3518.66 555.293 3518.46 556.497 3518.46 557.902C3518.46 558.706 3518.46 559.508 3518.26 560.512C3518.26 561.917 3518.06 563.322 3518.06 564.928C3517.86 565.53 3517.86 566.132 3517.86 566.734C3517.66 568.34 3517.46 569.745 3517.25 571.351C3517.25 571.953 3517.25 572.556 3517.05 573.158C3516.85 575.165 3516.45 576.972 3516.25 578.979V579.18V579.381C3515.85 581.188 3515.45 583.195 3515.05 585.001V585.603C3514.65 587.41 3514.24 589.217 3513.84 591.023C3513.84 591.224 3513.64 591.625 3513.64 591.826C3513.24 593.633 3512.84 595.439 3512.24 597.246V597.848C3511.63 599.855 3511.03 601.662 3510.63 603.469C3510.43 603.67 3510.43 603.87 3510.43 603.87C3509.83 605.877 3509.22 607.884 3508.62 609.891C3507.82 611.899 3507.22 613.705 3506.41 615.713C3505.61 617.72 3505.01 619.727 3504.21 621.534C3503.4 623.541 3502.6 625.347 3501.8 627.355H3501.6C3500.79 629.161 3499.99 631.169 3498.99 632.975C3498.79 633.577 3498.59 633.979 3498.38 634.38C3498.18 634.581 3498.18 634.781 3497.98 634.982C3484.94 661.278 3465.67 684.361 3441.58 702.427C3439.97 703.43 3438.37 704.635 3436.76 705.839C3436.36 706.24 3435.76 706.441 3435.36 706.843C3433.95 707.846 3432.55 708.85 3430.94 709.854L3431.54 711.058H3431.74C3434.55 710.657 3437.36 710.255 3440.17 709.854H3440.38C3445.59 709.05 3450.81 708.047 3456.03 707.043C3457.44 706.842 3459.04 706.441 3460.45 706.04C3461.45 705.839 3462.25 705.639 3463.26 705.437C3464.66 705.236 3466.07 704.835 3467.47 704.634C3468.68 704.233 3469.88 704.032 3471.09 703.631C3491.16 698.813 3510.63 692.189 3529.3 684.361C3497.38 727.918 3454.63 763.046 3404.65 786.129C3427.73 784.524 3450.81 780.71 3473.09 774.287C3553.99 750.4 3622.03 696.003 3662.78 622.738C3654.55 669.106 3636.08 713.266 3608.79 751.805C3628.26 738.959 3646.12 724.105 3662.38 707.244C3707.34 660.273 3736.85 600.658 3746.89 536.626C3753.71 568.341 3755.72 601.059 3752.71 633.376C3897.63 431.244 3764.75 221.685 3709.15 166.485C3708.95 166.084 3708.75 165.883 3708.75 165.481C3708.55 165.682 3708.55 165.682 3708.55 165.883C3708.55 165.681 3708.55 165.681 3708.35 165.481C3708.35 167.89 3708.14 170.299 3707.94 172.708C3707.34 177.324 3706.74 181.74 3705.94 186.156C3704.93 190.572 3703.73 194.988 3702.53 199.404C3701.12 203.619 3699.51 208.035 3697.71 212.251C3695.9 216.265 3693.89 220.48 3691.69 224.495C3689.48 228.309 3687.07 232.323 3684.46 235.937C3681.85 239.75 3679.04 243.363 3676.23 246.776C3673.22 250.389 3670.01 253.6 3666.8 256.812C3664.79 258.619 3662.98 260.224 3660.97 261.83C3659.37 263.235 3657.96 264.44 3656.36 265.845C3652.74 268.655 3649.13 271.264 3645.12 273.673C3641.3 276.082 3637.29 278.491 3633.27 280.498C3629.06 282.505 3624.84 284.312 3620.63 286.118C3616.41 287.724 3612 289.129 3607.58 290.334C3603.17 291.538 3598.55 292.542 3594.13 293.344C3589.52 294.148 3584.9 294.549 3580.48 294.95C3577.27 295.151 3574.06 295.352 3570.85 295.352C3566.23 295.352 3561.61 294.95 3557.2 294.548C3552.58 294.147 3547.97 293.544 3543.55 292.541C3538.93 291.738 3534.52 290.534 3530.1 289.129H3529.9C3534.32 288.727 3538.73 288.325 3543.15 287.523C3547.76 286.72 3552.18 285.716 3556.6 284.512C3561.01 283.307 3565.43 281.902 3569.64 280.297C3574.06 278.691 3578.27 276.684 3582.29 274.676C3586.5 272.669 3590.32 270.461 3594.33 268.052C3598.15 265.443 3601.96 262.833 3605.57 260.023C3609.19 257.213 3612.6 254.202 3615.81 250.99C3619.22 247.979 3622.23 244.567 3625.24 241.155C3628.26 237.542 3631.07 233.929 3633.68 230.316C3634.08 229.713 3634.48 228.91 3634.88 228.308C3636.89 225.097 3638.89 221.885 3640.7 218.673C3642.91 214.659 3644.92 210.644 3646.72 206.429C3648.53 202.214 3650.13 197.998 3651.54 193.582C3652.95 189.367 3653.95 184.951 3654.95 180.535C3655.76 175.919 3656.56 171.502 3656.96 167.087C3657.36 162.47 3657.76 157.853 3657.76 153.437C3657.76 150.225 3657.56 147.014 3657.36 143.802C3656.96 139.186 3656.36 134.769 3655.76 130.353C3654.95 125.737 3653.95 121.321 3652.75 116.905C3651.34 112.689 3649.93 108.273 3648.33 104.058C3646.72 99.843 3644.72 95.6277 3642.71 91.6131C3640.5 87.5986 3638.29 83.584 3635.88 79.7703C3633.27 75.9565 3630.67 72.3434 3627.85 68.7303C3624.84 65.3179 3621.83 61.9055 3618.62 58.4932C3617.02 56.8874 3615.21 55.0808 3613.4 53.4751C3604.37 46.4496 3594.94 39.8255 3585.5 33.8038C3584.1 33.0006 3582.89 32.3987 3581.49 31.7964C3574.86 27.5812 3568.64 25.3731 3562.42 23.3659L3562.42 23.365Z" fill="#EA2845"/>
<path d="M4003.54 535.076C4009.44 532.299 4014.99 530.563 4020.2 529.522C4033.05 527.439 4040.34 525.704 4042.42 524.315C4045.89 522.232 4048.32 519.455 4049.36 516.678C4050.75 511.818 4051.44 501.751 4051.44 485.782V455.581L4051.79 430.934L4050.75 394.137V372.267C4050.75 357.687 4049.71 345.537 4047.28 336.512C4046.59 333.041 4043.46 329.569 4038.6 326.098C4032.01 321.238 4021.24 316.725 4005.62 312.212L4005.27 295.549C4008.05 294.856 4010.83 294.16 4013.26 293.814C4015.69 293.466 4025.06 291.036 4041.38 286.871C4054.22 282.358 4062.55 278.887 4066.02 277.151C4067.41 276.457 4069.15 275.415 4071.93 274.027C4074.7 271.597 4077.83 269.514 4081.3 267.084C4088.24 262.224 4096.57 253.545 4106.29 241.743L4124.69 240.354L4124 279.58C4123.65 283.399 4123.65 286.523 4123.65 288.953C4123.65 291.036 4123.65 296.243 4124 304.922C4143.44 288.259 4160.79 276.803 4176.76 270.208C4197.24 261.529 4217.03 257.363 4235.43 257.363C4257.3 257.363 4276.74 262.918 4293.06 273.679C4309.72 284.44 4320.48 296.937 4325.34 310.823C4330.55 325.056 4332.98 353.868 4332.98 396.567L4331.59 510.429C4331.59 515.636 4332.63 520.149 4334.36 523.62C4336.79 525.356 4343.39 527.092 4353.8 528.827L4370.81 531.951C4372.9 535.076 4373.94 538.547 4373.94 543.06C4373.94 545.837 4373.94 549.656 4373.59 554.516L4305.2 549.656L4285.07 550.349H4269.1L4222.93 553.821H4211.13C4210.78 550.697 4210.78 548.614 4210.78 546.878C4210.78 542.712 4211.13 538.2 4211.47 533.34C4214.6 532.646 4222.93 531.604 4235.77 529.868C4239.25 529.52 4243.06 528.479 4247.58 527.438C4252.09 525.702 4254.87 523.62 4255.56 521.884C4257.3 517.718 4258.34 510.428 4258.34 499.32C4258.34 479.533 4257.99 464.606 4257.65 454.191L4257.99 413.923C4257.99 364.629 4255.22 334.081 4248.97 322.278C4239.94 304.574 4226.75 295.895 4209.05 295.895C4196.2 295.895 4182.66 299.367 4168.78 305.962C4154.55 312.558 4140.31 322.625 4125.39 336.164L4124.69 342.065L4125.39 363.935L4125.04 387.194L4126.43 443.083L4125.73 451.762C4125.73 489.6 4127.12 511.122 4130.25 515.982C4133.37 520.842 4144.83 526.05 4164.96 531.951C4165.65 535.769 4166 538.894 4166 540.629C4166 543.407 4164.96 547.572 4163.57 553.474C4156.28 553.821 4150.03 553.821 4145.17 553.821C4140.31 553.821 4132.68 553.128 4122.26 551.739L4085.12 551.045C4066.37 551.045 4039.64 551.739 4004.58 553.475C4003.54 551.045 4003.19 548.615 4003.19 546.185C4003.19 544.449 4003.19 540.631 4003.54 535.076L4003.54 535.076Z" fill="#EA2845"/>
<path d="M4413.51 368.102C4419.76 348.315 4424.97 335.123 4429.83 328.875C4442.67 309.782 4456.56 294.855 4471.14 284.094C4486.06 273.332 4499.26 266.39 4511.06 262.918C4526.68 258.405 4538.83 256.323 4548.55 256.323C4570.42 256.323 4588.12 258.058 4601.32 261.529C4614.85 264.654 4626.31 269.514 4635.34 275.762C4648.18 284.788 4658.59 294.161 4666.58 303.186C4674.56 312.559 4680.81 323.668 4685.67 336.165C4690.88 348.662 4693.65 363.936 4694.35 381.64L4655.47 380.947C4644.71 380.947 4621.45 379.905 4585 377.822C4571.46 377.129 4562.44 376.433 4557.23 376.433C4555.49 376.433 4543 376.781 4519.74 376.781H4489.54C4489.19 380.252 4488.84 383.029 4488.84 385.112C4488.84 397.609 4490.58 410.453 4493.36 424.339C4496.48 437.878 4500.99 449.68 4506.89 460.095C4513.14 470.509 4520.43 479.187 4529.46 486.477C4538.48 494.114 4547.86 499.322 4557.23 502.793L4577.36 509.388C4595.41 509.388 4607.22 508.695 4613.47 507.653C4624.57 505.223 4634.29 502.446 4642.63 498.974C4651.3 495.156 4661.37 488.907 4673.52 480.229C4681.85 486.477 4688.8 491.684 4694.7 496.891C4674.22 519.108 4652.69 535.771 4630.82 545.838C4608.95 555.905 4584.31 560.765 4557.23 560.765C4538.83 560.765 4523.9 559.376 4512.1 555.905C4496.83 551.74 4482.59 545.491 4470.1 536.813C4457.6 528.134 4446.84 517.373 4437.81 504.876C4428.79 492.032 4421.84 478.84 4417.33 465.302C4411.78 447.598 4408.65 433.365 4408.65 422.95C4408.65 402.469 4410.39 384.418 4413.51 368.102L4413.51 368.102ZM4616.24 353.175C4615.89 339.983 4613.47 327.834 4608.61 315.683C4603.75 303.881 4596.11 294.855 4585.69 288.259C4575.63 281.664 4565.21 278.192 4554.8 278.192C4539.18 278.192 4525.29 285.135 4512.45 298.674C4499.95 312.559 4493.01 330.958 4491.27 354.563L4570.77 354.911C4575.97 354.911 4583.26 354.563 4592.29 353.87C4599.23 353.176 4604.09 352.828 4606.87 352.828C4608.95 352.828 4612.08 352.828 4616.24 353.176V353.175Z" fill="#EA2845"/>
<path d="M4749.54 455.234C4756.49 453.845 4761.69 453.151 4764.82 453.151C4766.55 453.151 4768.98 453.151 4772.11 453.499L4775.23 456.97C4788.08 479.187 4796.06 492.379 4800.23 497.239C4808.21 506.611 4816.2 514.249 4824.18 520.15C4829.39 523.621 4837.72 527.787 4849.17 531.605C4856.81 534.383 4865.14 535.771 4873.82 535.771C4888.4 535.771 4900.9 531.258 4911.31 521.886C4921.73 512.166 4926.93 502.099 4926.93 490.99C4926.93 483.7 4924.85 477.452 4921.03 472.244C4917.21 467.037 4909.23 461.83 4897.43 456.623C4891.53 454.193 4876.95 450.028 4853.34 444.126C4830.08 438.225 4816.2 434.406 4811.34 432.671C4800.23 428.505 4790.51 422.603 4782.18 415.313C4773.5 407.676 4767.25 399.345 4762.74 389.972C4756.83 376.781 4753.71 365.325 4753.71 355.952C4753.71 338.248 4756.49 324.015 4761.35 312.56C4766.55 301.451 4773.84 291.384 4783.22 282.706C4789.81 276.11 4799.88 270.209 4813.42 265.002C4826.96 259.795 4841.88 257.017 4857.16 257.017C4879.38 257.017 4898.81 258.406 4915.48 261.53C4932.14 264.655 4946.37 269.167 4957.83 275.069C4959.56 280.276 4961.3 292.773 4964.08 311.866C4966.51 331.306 4967.9 342.761 4967.9 346.233C4967.9 347.968 4967.55 349.704 4966.85 351.44C4960.61 353.175 4955.75 354.217 4951.58 354.217C4949.5 354.217 4946.03 353.869 4941.51 353.523C4939.43 350.399 4936.65 345.192 4933.18 338.943C4922.07 318.115 4910.62 303.535 4898.81 295.203C4887.01 286.525 4873.82 282.359 4858.2 282.359C4842.23 282.359 4828.69 287.219 4817.93 296.245C4809.95 303.188 4806.13 312.213 4806.13 324.016C4806.13 331.653 4810.29 339.29 4818.63 347.275C4826.61 355.259 4840.84 361.507 4860.98 365.673C4891.52 372.269 4914.09 379.211 4928.32 385.807C4949.15 395.527 4964.08 407.33 4972.41 420.521C4980.74 433.712 4985.25 448.987 4985.25 466.344C4985.25 493.421 4974.84 515.985 4954.36 534.036C4934.22 551.74 4904.72 560.766 4865.49 560.766C4860.63 560.766 4847.09 559.725 4825.57 557.295C4815.85 556.253 4804.39 553.823 4791.2 550.352C4787.73 549.31 4779.4 546.186 4765.51 540.285C4763.08 538.896 4761.35 537.16 4759.96 535.425C4759.26 533.342 4757.53 523.622 4755.45 506.265C4751.97 477.799 4749.89 460.789 4749.54 455.235V455.234Z" fill="#EA2845"/>
<path d="M5035.59 288.607C5063.01 277.151 5082.8 265.695 5094.95 254.587C5107.45 243.478 5120.29 225.08 5134.18 200.086H5153.96C5156.05 206.334 5157.09 212.583 5157.09 219.178C5157.09 231.328 5156.74 240.701 5156.74 247.644L5155.7 268.125C5155.7 269.167 5155.7 271.944 5156.05 276.11L5164.03 276.457C5165.07 276.457 5176.18 276.109 5196.66 275.068C5198.4 275.068 5207.08 274.72 5222.7 274.374C5224.09 280.623 5225.13 286.177 5225.13 291.037C5225.13 296.592 5224.09 302.84 5222.35 309.783C5214.71 310.824 5209.16 311.172 5204.99 311.172C5203.26 311.172 5199.44 311.172 5193.88 310.478H5175.83L5169.58 310.13L5152.92 310.824L5152.23 444.126C5151.88 469.815 5152.23 486.13 5153.62 492.379C5155.01 498.974 5157.78 504.876 5161.95 510.777C5167.16 513.207 5173.06 514.596 5179.65 514.596C5185.9 514.596 5190.41 513.902 5193.54 512.86C5196.66 511.471 5201.87 508.347 5208.81 502.793C5210.2 501.404 5212.63 500.016 5215.41 497.933C5220.96 502.099 5225.82 506.611 5229.29 511.124L5230.68 515.29C5222.35 528.134 5210.9 538.201 5195.97 545.491C5181.39 552.781 5165.77 556.253 5149.1 556.253C5127.24 556.253 5109.88 549.31 5096.34 535.771C5082.8 521.886 5076.21 500.71 5076.21 471.897L5077.59 410.801V311.171L5066.83 310.824L5041.49 311.171L5036.98 310.13C5035.59 308.047 5034.9 306.311 5034.9 304.228C5034.9 302.839 5035.24 297.633 5035.59 288.607L5035.59 288.607Z" fill="#EA2845"/>
<path d="M137.689 329.6V357H100.489V470H66.2891V357H29.0891V329.6H137.689ZM223.453 357.2C236.253 357.2 246.52 361.467 254.253 370C261.986 378.4 265.853 390 265.853 404.8V470H231.853V409.4C231.853 401.933 229.92 396.133 226.053 392C222.186 387.867 216.986 385.8 210.453 385.8C203.92 385.8 198.72 387.867 194.853 392C190.986 396.133 189.053 401.933 189.053 409.4V470H154.853V322H189.053V373.4C192.52 368.467 197.253 364.533 203.253 361.6C209.253 358.667 215.986 357.2 223.453 357.2ZM306.819 346.8C300.819 346.8 295.885 345.067 292.019 341.6C288.285 338 286.419 333.6 286.419 328.4C286.419 323.067 288.285 318.667 292.019 315.2C295.885 311.6 300.819 309.8 306.819 309.8C312.685 309.8 317.485 311.6 321.219 315.2C325.085 318.667 327.019 323.067 327.019 328.4C327.019 333.6 325.085 338 321.219 341.6C317.485 345.067 312.685 346.8 306.819 346.8ZM323.819 358.4V470H289.619V358.4H323.819ZM394.003 471.6C384.27 471.6 375.603 469.933 368.003 466.6C360.403 463.267 354.403 458.733 350.003 453C345.603 447.133 343.136 440.6 342.603 433.4H376.403C376.803 437.267 378.603 440.4 381.803 442.8C385.003 445.2 388.936 446.4 393.603 446.4C397.87 446.4 401.136 445.6 403.403 444C405.803 442.267 407.003 440.067 407.003 437.4C407.003 434.2 405.336 431.867 402.003 430.4C398.67 428.8 393.27 427.067 385.803 425.2C377.803 423.333 371.136 421.4 365.803 419.4C360.47 417.267 355.87 414 352.003 409.6C348.136 405.067 346.203 399 346.203 391.4C346.203 385 347.936 379.2 351.403 374C355.003 368.667 360.203 364.467 367.003 361.4C373.936 358.333 382.136 356.8 391.603 356.8C405.603 356.8 416.603 360.267 424.603 367.2C432.736 374.133 437.403 383.333 438.603 394.8H407.003C406.47 390.933 404.736 387.867 401.803 385.6C399.003 383.333 395.27 382.2 390.603 382.2C386.603 382.2 383.536 383 381.403 384.6C379.27 386.067 378.203 388.133 378.203 390.8C378.203 394 379.87 396.4 383.203 398C386.67 399.6 392.003 401.2 399.203 402.8C407.47 404.933 414.203 407.067 419.403 409.2C424.603 411.2 429.136 414.533 433.003 419.2C437.003 423.733 439.07 429.867 439.203 437.6C439.203 444.133 437.336 450 433.603 455.2C430.003 460.267 424.736 464.267 417.803 467.2C411.003 470.133 403.07 471.6 394.003 471.6ZM536.709 374.2C540.043 369 544.643 364.8 550.509 361.6C556.376 358.4 563.243 356.8 571.109 356.8C580.309 356.8 588.643 359.133 596.109 363.8C603.576 368.467 609.443 375.133 613.709 383.8C618.109 392.467 620.309 402.533 620.309 414C620.309 425.467 618.109 435.6 613.709 444.4C609.443 453.067 603.576 459.8 596.109 464.6C588.643 469.267 580.309 471.6 571.109 471.6C563.376 471.6 556.509 470 550.509 466.8C544.643 463.6 540.043 459.467 536.709 454.4V523.2H502.509V358.4H536.709V374.2ZM585.509 414C585.509 405.467 583.109 398.8 578.309 394C573.643 389.067 567.843 386.6 560.909 386.6C554.109 386.6 548.309 389.067 543.509 394C538.843 398.933 536.509 405.667 536.509 414.2C536.509 422.733 538.843 429.467 543.509 434.4C548.309 439.333 554.109 441.8 560.909 441.8C567.709 441.8 573.509 439.333 578.309 434.4C583.109 429.333 585.509 422.533 585.509 414ZM672.452 377C676.452 370.867 681.452 366.067 687.452 362.6C693.452 359 700.118 357.2 707.452 357.2V393.4H698.052C689.518 393.4 683.118 395.267 678.852 399C674.585 402.6 672.452 409 672.452 418.2V470H638.252V358.4H672.452V377ZM774.598 471.6C763.665 471.6 753.798 469.267 744.998 464.6C736.332 459.933 729.465 453.267 724.398 444.6C719.465 435.933 716.998 425.8 716.998 414.2C716.998 402.733 719.532 392.667 724.598 384C729.665 375.2 736.598 368.467 745.398 363.8C754.198 359.133 764.065 356.8 774.998 356.8C785.932 356.8 795.798 359.133 804.598 363.8C813.398 368.467 820.332 375.2 825.398 384C830.465 392.667 832.998 402.733 832.998 414.2C832.998 425.667 830.398 435.8 825.198 444.6C820.132 453.267 813.132 459.933 804.198 464.6C795.398 469.267 785.532 471.6 774.598 471.6ZM774.598 442C781.132 442 786.665 439.6 791.198 434.8C795.865 430 798.198 423.133 798.198 414.2C798.198 405.267 795.932 398.4 791.398 393.6C786.998 388.8 781.532 386.4 774.998 386.4C768.332 386.4 762.798 388.8 758.398 393.6C753.998 398.267 751.798 405.133 751.798 414.2C751.798 423.133 753.932 430 758.198 434.8C762.598 439.6 768.065 442 774.598 442ZM868.142 346.8C862.142 346.8 857.209 345.067 853.342 341.6C849.609 338 847.742 333.6 847.742 328.4C847.742 323.067 849.609 318.667 853.342 315.2C857.209 311.6 862.142 309.8 868.142 309.8C874.009 309.8 878.809 311.6 882.542 315.2C886.409 318.667 888.342 323.067 888.342 328.4C888.342 333.6 886.409 338 882.542 341.6C878.809 345.067 874.009 346.8 868.142 346.8ZM885.342 484.4C885.342 498.133 881.876 508 874.942 514C868.009 520.133 858.342 523.2 845.942 523.2H832.542V494.2H840.742C844.476 494.2 847.142 493.467 848.742 492C850.342 490.533 851.142 488.133 851.142 484.8V358.4H885.342V484.4ZM1015.13 412.4C1015.13 415.6 1014.93 418.933 1014.53 422.4H937.131C937.665 429.333 939.865 434.667 943.731 438.4C947.731 442 952.598 443.8 958.331 443.8C966.865 443.8 972.798 440.2 976.131 433H1012.53C1010.66 440.333 1007.26 446.933 1002.33 452.8C997.531 458.667 991.465 463.267 984.131 466.6C976.798 469.933 968.598 471.6 959.531 471.6C948.598 471.6 938.865 469.267 930.331 464.6C921.798 459.933 915.131 453.267 910.331 444.6C905.531 435.933 903.131 425.8 903.131 414.2C903.131 402.6 905.465 392.467 910.131 383.8C914.931 375.133 921.598 368.467 930.131 363.8C938.665 359.133 948.465 356.8 959.531 356.8C970.331 356.8 979.931 359.067 988.331 363.6C996.731 368.133 1003.26 374.6 1007.93 383C1012.73 391.4 1015.13 401.2 1015.13 412.4ZM980.131 403.4C980.131 397.533 978.131 392.867 974.131 389.4C970.131 385.933 965.131 384.2 959.131 384.2C953.398 384.2 948.531 385.867 944.531 389.2C940.665 392.533 938.265 397.267 937.331 403.4H980.131ZM1026.37 414.2C1026.37 402.6 1028.71 392.467 1033.37 383.8C1038.17 375.133 1044.77 368.467 1053.17 363.8C1061.71 359.133 1071.44 356.8 1082.37 356.8C1096.37 356.8 1108.04 360.467 1117.37 367.8C1126.84 375.133 1133.04 385.467 1135.97 398.8H1099.57C1096.51 390.267 1090.57 386 1081.77 386C1075.51 386 1070.51 388.467 1066.77 393.4C1063.04 398.2 1061.17 405.133 1061.17 414.2C1061.17 423.267 1063.04 430.267 1066.77 435.2C1070.51 440 1075.51 442.4 1081.77 442.4C1090.57 442.4 1096.51 438.133 1099.57 429.6H1135.97C1133.04 442.667 1126.84 452.933 1117.37 460.4C1107.91 467.867 1096.24 471.6 1082.37 471.6C1071.44 471.6 1061.71 469.267 1053.17 464.6C1044.77 459.933 1038.17 453.267 1033.37 444.6C1028.71 435.933 1026.37 425.8 1026.37 414.2ZM1216.47 441V470H1199.07C1186.67 470 1177 467 1170.07 461C1163.13 454.867 1159.67 444.933 1159.67 431.2V386.8H1146.07V358.4H1159.67V331.2H1193.87V358.4H1216.27V386.8H1193.87V431.6C1193.87 434.933 1194.67 437.333 1196.27 438.8C1197.87 440.267 1200.53 441 1204.27 441H1216.47ZM1438.1 358.4L1407.9 470H1370.1L1352.5 397.6L1334.3 470H1296.7L1266.3 358.4H1300.5L1316.3 438.2L1335.1 358.4H1371.3L1390.3 437.8L1405.9 358.4H1438.1ZM1444.34 414C1444.34 402.533 1446.48 392.467 1450.74 383.8C1455.14 375.133 1461.08 368.467 1468.54 363.8C1476.01 359.133 1484.34 356.8 1493.54 356.8C1501.41 356.8 1508.28 358.4 1514.14 361.6C1520.14 364.8 1524.74 369 1527.94 374.2V358.4H1562.14V470H1527.94V454.2C1524.61 459.4 1519.94 463.6 1513.94 466.8C1508.08 470 1501.21 471.6 1493.34 471.6C1484.28 471.6 1476.01 469.267 1468.54 464.6C1461.08 459.8 1455.14 453.067 1450.74 444.4C1446.48 435.6 1444.34 425.467 1444.34 414ZM1527.94 414.2C1527.94 405.667 1525.54 398.933 1520.74 394C1516.08 389.067 1510.34 386.6 1503.54 386.6C1496.74 386.6 1490.94 389.067 1486.14 394C1481.48 398.8 1479.14 405.467 1479.14 414C1479.14 422.533 1481.48 429.333 1486.14 434.4C1490.94 439.333 1496.74 441.8 1503.54 441.8C1510.34 441.8 1516.08 439.333 1520.74 434.4C1525.54 429.467 1527.94 422.733 1527.94 414.2ZM1632.28 471.6C1622.55 471.6 1613.88 469.933 1606.28 466.6C1598.68 463.267 1592.68 458.733 1588.28 453C1583.88 447.133 1581.42 440.6 1580.88 433.4H1614.68C1615.08 437.267 1616.88 440.4 1620.08 442.8C1623.28 445.2 1627.22 446.4 1631.88 446.4C1636.15 446.4 1639.42 445.6 1641.68 444C1644.08 442.267 1645.28 440.067 1645.28 437.4C1645.28 434.2 1643.62 431.867 1640.28 430.4C1636.95 428.8 1631.55 427.067 1624.08 425.2C1616.08 423.333 1609.42 421.4 1604.08 419.4C1598.75 417.267 1594.15 414 1590.28 409.6C1586.42 405.067 1584.48 399 1584.48 391.4C1584.48 385 1586.22 379.2 1589.68 374C1593.28 368.667 1598.48 364.467 1605.28 361.4C1612.22 358.333 1620.42 356.8 1629.88 356.8C1643.88 356.8 1654.88 360.267 1662.88 367.2C1671.02 374.133 1675.68 383.333 1676.88 394.8H1645.28C1644.75 390.933 1643.02 387.867 1640.08 385.6C1637.28 383.333 1633.55 382.2 1628.88 382.2C1624.88 382.2 1621.82 383 1619.68 384.6C1617.55 386.067 1616.48 388.133 1616.48 390.8C1616.48 394 1618.15 396.4 1621.48 398C1624.95 399.6 1630.28 401.2 1637.48 402.8C1645.75 404.933 1652.48 407.067 1657.68 409.2C1662.88 411.2 1667.42 414.533 1671.28 419.2C1675.28 423.733 1677.35 429.867 1677.48 437.6C1677.48 444.133 1675.62 450 1671.88 455.2C1668.28 460.267 1663.02 464.267 1656.08 467.2C1649.28 470.133 1641.35 471.6 1632.28 471.6ZM1883.19 357.2C1897.06 357.2 1908.06 361.4 1916.19 369.8C1924.46 378.2 1928.59 389.867 1928.59 404.8V470H1894.59V409.4C1894.59 402.2 1892.66 396.667 1888.79 392.8C1885.06 388.8 1879.86 386.8 1873.19 386.8C1866.52 386.8 1861.26 388.8 1857.39 392.8C1853.66 396.667 1851.79 402.2 1851.79 409.4V470H1817.79V409.4C1817.79 402.2 1815.86 396.667 1811.99 392.8C1808.26 388.8 1803.06 386.8 1796.39 386.8C1789.72 386.8 1784.46 388.8 1780.59 392.8C1776.86 396.667 1774.99 402.2 1774.99 409.4V470H1740.79V358.4H1774.99V372.4C1778.46 367.733 1782.99 364.067 1788.59 361.4C1794.19 358.6 1800.52 357.2 1807.59 357.2C1815.99 357.2 1823.46 359 1829.99 362.6C1836.66 366.2 1841.86 371.333 1845.59 378C1849.46 371.867 1854.72 366.867 1861.39 363C1868.06 359.133 1875.32 357.2 1883.19 357.2ZM1945.71 414C1945.71 402.533 1947.84 392.467 1952.11 383.8C1956.51 375.133 1962.44 368.467 1969.91 363.8C1977.38 359.133 1985.71 356.8 1994.91 356.8C2002.78 356.8 2009.64 358.4 2015.51 361.6C2021.51 364.8 2026.11 369 2029.31 374.2V358.4H2063.51V470H2029.31V454.2C2025.98 459.4 2021.31 463.6 2015.31 466.8C2009.44 470 2002.58 471.6 1994.71 471.6C1985.64 471.6 1977.38 469.267 1969.91 464.6C1962.44 459.8 1956.51 453.067 1952.11 444.4C1947.84 435.6 1945.71 425.467 1945.71 414ZM2029.31 414.2C2029.31 405.667 2026.91 398.933 2022.11 394C2017.44 389.067 2011.71 386.6 2004.91 386.6C1998.11 386.6 1992.31 389.067 1987.51 394C1982.84 398.8 1980.51 405.467 1980.51 414C1980.51 422.533 1982.84 429.333 1987.51 434.4C1992.31 439.333 1998.11 441.8 2004.91 441.8C2011.71 441.8 2017.44 439.333 2022.11 434.4C2026.91 429.467 2029.31 422.733 2029.31 414.2ZM2081.45 414C2081.45 402.533 2083.58 392.467 2087.85 383.8C2092.25 375.133 2098.18 368.467 2105.65 363.8C2113.12 359.133 2121.45 356.8 2130.65 356.8C2137.98 356.8 2144.65 358.333 2150.65 361.4C2156.78 364.467 2161.58 368.6 2165.05 373.8V322H2199.25V470H2165.05V454C2161.85 459.333 2157.25 463.6 2151.25 466.8C2145.38 470 2138.52 471.6 2130.65 471.6C2121.45 471.6 2113.12 469.267 2105.65 464.6C2098.18 459.8 2092.25 453.067 2087.85 444.4C2083.58 435.6 2081.45 425.467 2081.45 414ZM2165.05 414.2C2165.05 405.667 2162.65 398.933 2157.85 394C2153.18 389.067 2147.45 386.6 2140.65 386.6C2133.85 386.6 2128.05 389.067 2123.25 394C2118.58 398.8 2116.25 405.467 2116.25 414C2116.25 422.533 2118.58 429.333 2123.25 434.4C2128.05 439.333 2133.85 441.8 2140.65 441.8C2147.45 441.8 2153.18 439.333 2157.85 434.4C2162.65 429.467 2165.05 422.733 2165.05 414.2ZM2329.19 412.4C2329.19 415.6 2328.99 418.933 2328.59 422.4H2251.19C2251.73 429.333 2253.93 434.667 2257.79 438.4C2261.79 442 2266.66 443.8 2272.39 443.8C2280.93 443.8 2286.86 440.2 2290.19 433H2326.59C2324.73 440.333 2321.33 446.933 2316.39 452.8C2311.59 458.667 2305.53 463.267 2298.19 466.6C2290.86 469.933 2282.66 471.6 2273.59 471.6C2262.66 471.6 2252.93 469.267 2244.39 464.6C2235.86 459.933 2229.19 453.267 2224.39 444.6C2219.59 435.933 2217.19 425.8 2217.19 414.2C2217.19 402.6 2219.53 392.467 2224.19 383.8C2228.99 375.133 2235.66 368.467 2244.19 363.8C2252.73 359.133 2262.53 356.8 2273.59 356.8C2284.39 356.8 2293.99 359.067 2302.39 363.6C2310.79 368.133 2317.33 374.6 2321.99 383C2326.79 391.4 2329.19 401.2 2329.19 412.4ZM2294.19 403.4C2294.19 397.533 2292.19 392.867 2288.19 389.4C2284.19 385.933 2279.19 384.2 2273.19 384.2C2267.46 384.2 2262.59 385.867 2258.59 389.2C2254.73 392.533 2252.33 397.267 2251.39 403.4H2294.19ZM2499.82 358.4V470H2465.62V454.8C2462.15 459.733 2457.42 463.733 2451.42 466.8C2445.55 469.733 2439.02 471.2 2431.82 471.2C2423.29 471.2 2415.75 469.333 2409.22 465.6C2402.69 461.733 2397.62 456.2 2394.02 449C2390.42 441.8 2388.62 433.333 2388.62 423.6V358.4H2422.62V419C2422.62 426.467 2424.55 432.267 2428.42 436.4C2432.29 440.533 2437.49 442.6 2444.02 442.6C2450.69 442.6 2455.95 440.533 2459.82 436.4C2463.69 432.267 2465.62 426.467 2465.62 419V358.4H2499.82ZM2569.78 471.6C2560.05 471.6 2551.38 469.933 2543.78 466.6C2536.18 463.267 2530.18 458.733 2525.78 453C2521.38 447.133 2518.92 440.6 2518.38 433.4H2552.18C2552.58 437.267 2554.38 440.4 2557.58 442.8C2560.78 445.2 2564.72 446.4 2569.38 446.4C2573.65 446.4 2576.92 445.6 2579.18 444C2581.58 442.267 2582.78 440.067 2582.78 437.4C2582.78 434.2 2581.12 431.867 2577.78 430.4C2574.45 428.8 2569.05 427.067 2561.58 425.2C2553.58 423.333 2546.92 421.4 2541.58 419.4C2536.25 417.267 2531.65 414 2527.78 409.6C2523.92 405.067 2521.98 399 2521.98 391.4C2521.98 385 2523.72 379.2 2527.18 374C2530.78 368.667 2535.98 364.467 2542.78 361.4C2549.72 358.333 2557.92 356.8 2567.38 356.8C2581.38 356.8 2592.38 360.267 2600.38 367.2C2608.52 374.133 2613.18 383.333 2614.38 394.8H2582.78C2582.25 390.933 2580.52 387.867 2577.58 385.6C2574.78 383.333 2571.05 382.2 2566.38 382.2C2562.38 382.2 2559.32 383 2557.18 384.6C2555.05 386.067 2553.98 388.133 2553.98 390.8C2553.98 394 2555.65 396.4 2558.98 398C2562.45 399.6 2567.78 401.2 2574.98 402.8C2583.25 404.933 2589.98 407.067 2595.18 409.2C2600.38 411.2 2604.92 414.533 2608.78 419.2C2612.78 423.733 2614.85 429.867 2614.98 437.6C2614.98 444.133 2613.12 450 2609.38 455.2C2605.78 460.267 2600.52 464.267 2593.58 467.2C2586.78 470.133 2578.85 471.6 2569.78 471.6ZM2653.11 346.8C2647.11 346.8 2642.17 345.067 2638.31 341.6C2634.57 338 2632.71 333.6 2632.71 328.4C2632.71 323.067 2634.57 318.667 2638.31 315.2C2642.17 311.6 2647.11 309.8 2653.11 309.8C2658.97 309.8 2663.77 311.6 2667.51 315.2C2671.37 318.667 2673.31 323.067 2673.31 328.4C2673.31 333.6 2671.37 338 2667.51 341.6C2663.77 345.067 2658.97 346.8 2653.11 346.8ZM2670.11 358.4V470H2635.91V358.4H2670.11ZM2762.89 357.2C2775.96 357.2 2786.36 361.467 2794.09 370C2801.96 378.4 2805.89 390 2805.89 404.8V470H2771.89V409.4C2771.89 401.933 2769.96 396.133 2766.09 392C2762.23 387.867 2757.03 385.8 2750.49 385.8C2743.96 385.8 2738.76 387.867 2734.89 392C2731.03 396.133 2729.09 401.933 2729.09 409.4V470H2694.89V358.4H2729.09V373.2C2732.56 368.267 2737.23 364.4 2743.09 361.6C2748.96 358.667 2755.56 357.2 2762.89 357.2ZM2872.06 356.8C2879.92 356.8 2886.79 358.4 2892.66 361.6C2898.66 364.8 2903.26 369 2906.46 374.2V358.4H2940.66V469.8C2940.66 480.067 2938.59 489.333 2934.46 497.6C2930.46 506 2924.26 512.667 2915.86 517.6C2907.59 522.533 2897.26 525 2884.86 525C2868.32 525 2854.92 521.067 2844.66 513.2C2834.39 505.467 2828.52 494.933 2827.06 481.6H2860.86C2861.92 485.867 2864.46 489.2 2868.46 491.6C2872.46 494.133 2877.39 495.4 2883.26 495.4C2890.32 495.4 2895.92 493.333 2900.06 489.2C2904.32 485.2 2906.46 478.733 2906.46 469.8V454C2903.12 459.2 2898.52 463.467 2892.66 466.8C2886.79 470 2879.92 471.6 2872.06 471.6C2862.86 471.6 2854.52 469.267 2847.06 464.6C2839.59 459.8 2833.66 453.067 2829.26 444.4C2824.99 435.6 2822.86 425.467 2822.86 414C2822.86 402.533 2824.99 392.467 2829.26 383.8C2833.66 375.133 2839.59 368.467 2847.06 363.8C2854.52 359.133 2862.86 356.8 2872.06 356.8ZM2906.46 414.2C2906.46 405.667 2904.06 398.933 2899.26 394C2894.59 389.067 2888.86 386.6 2882.06 386.6C2875.26 386.6 2869.46 389.067 2864.66 394C2859.99 398.8 2857.66 405.467 2857.66 414C2857.66 422.533 2859.99 429.333 2864.66 434.4C2869.46 439.333 2875.26 441.8 2882.06 441.8C2888.86 441.8 2894.59 439.333 2899.26 434.4C2904.06 429.467 2906.46 422.733 2906.46 414.2Z" fill="#EA2845"/>
<path d="M5406.4 386.8H5388V470H5353.8V386.8H5341.4V358.4H5353.8V355.2C5353.8 341.467 5357.73 331.067 5365.6 324C5373.47 316.8 5385 313.2 5400.2 313.2C5402.73 313.2 5404.6 313.267 5405.8 313.4V342.4C5399.27 342 5394.67 342.933 5392 345.2C5389.33 347.467 5388 351.533 5388 357.4V358.4H5406.4V386.8ZM5456.67 377C5460.67 370.867 5465.67 366.067 5471.67 362.6C5477.67 359 5484.34 357.2 5491.67 357.2V393.4H5482.27C5473.74 393.4 5467.34 395.267 5463.07 399C5458.8 402.6 5456.67 409 5456.67 418.2V470H5422.47V358.4H5456.67V377ZM5501.22 414C5501.22 402.533 5503.35 392.467 5507.62 383.8C5512.02 375.133 5517.95 368.467 5525.42 363.8C5532.88 359.133 5541.22 356.8 5550.42 356.8C5558.28 356.8 5565.15 358.4 5571.02 361.6C5577.02 364.8 5581.62 369 5584.82 374.2V358.4H5619.02V470H5584.82V454.2C5581.48 459.4 5576.82 463.6 5570.82 466.8C5564.95 470 5558.08 471.6 5550.22 471.6C5541.15 471.6 5532.88 469.267 5525.42 464.6C5517.95 459.8 5512.02 453.067 5507.62 444.4C5503.35 435.6 5501.22 425.467 5501.22 414ZM5584.82 414.2C5584.82 405.667 5582.42 398.933 5577.62 394C5572.95 389.067 5567.22 386.6 5560.42 386.6C5553.62 386.6 5547.82 389.067 5543.02 394C5538.35 398.8 5536.02 405.467 5536.02 414C5536.02 422.533 5538.35 429.333 5543.02 434.4C5547.82 439.333 5553.62 441.8 5560.42 441.8C5567.22 441.8 5572.95 439.333 5577.62 434.4C5582.42 429.467 5584.82 422.733 5584.82 414.2ZM5786.16 357.2C5800.03 357.2 5811.03 361.4 5819.16 369.8C5827.43 378.2 5831.56 389.867 5831.56 404.8V470H5797.56V409.4C5797.56 402.2 5795.63 396.667 5791.76 392.8C5788.03 388.8 5782.83 386.8 5776.16 386.8C5769.49 386.8 5764.23 388.8 5760.36 392.8C5756.63 396.667 5754.76 402.2 5754.76 409.4V470H5720.76V409.4C5720.76 402.2 5718.83 396.667 5714.96 392.8C5711.23 388.8 5706.03 386.8 5699.36 386.8C5692.69 386.8 5687.43 388.8 5683.56 392.8C5679.83 396.667 5677.96 402.2 5677.96 409.4V470H5643.76V358.4H5677.96V372.4C5681.43 367.733 5685.96 364.067 5691.56 361.4C5697.16 358.6 5703.49 357.2 5710.56 357.2C5718.96 357.2 5726.43 359 5732.96 362.6C5739.63 366.2 5744.83 371.333 5748.56 378C5752.43 371.867 5757.69 366.867 5764.36 363C5771.03 359.133 5778.29 357.2 5786.16 357.2ZM5960.68 412.4C5960.68 415.6 5960.48 418.933 5960.08 422.4H5882.68C5883.21 429.333 5885.41 434.667 5889.28 438.4C5893.28 442 5898.14 443.8 5903.88 443.8C5912.41 443.8 5918.34 440.2 5921.68 433H5958.08C5956.21 440.333 5952.81 446.933 5947.88 452.8C5943.08 458.667 5937.01 463.267 5929.68 466.6C5922.34 469.933 5914.14 471.6 5905.08 471.6C5894.14 471.6 5884.41 469.267 5875.88 464.6C5867.34 459.933 5860.68 453.267 5855.88 444.6C5851.08 435.933 5848.68 425.8 5848.68 414.2C5848.68 402.6 5851.01 392.467 5855.68 383.8C5860.48 375.133 5867.14 368.467 5875.68 363.8C5884.21 359.133 5894.01 356.8 5905.08 356.8C5915.88 356.8 5925.48 359.067 5933.88 363.6C5942.28 368.133 5948.81 374.6 5953.48 383C5958.28 391.4 5960.68 401.2 5960.68 412.4ZM5925.68 403.4C5925.68 397.533 5923.68 392.867 5919.68 389.4C5915.68 385.933 5910.68 384.2 5904.68 384.2C5898.94 384.2 5894.08 385.867 5890.08 389.2C5886.21 392.533 5883.81 397.267 5882.88 403.4H5925.68ZM6138.92 358.4L6108.72 470H6070.92L6053.32 397.6L6035.12 470H5997.52L5967.12 358.4H6001.32L6017.12 438.2L6035.92 358.4H6072.12L6091.12 437.8L6106.72 358.4H6138.92ZM6202.76 471.6C6191.83 471.6 6181.96 469.267 6173.16 464.6C6164.5 459.933 6157.63 453.267 6152.56 444.6C6147.63 435.933 6145.16 425.8 6145.16 414.2C6145.16 402.733 6147.7 392.667 6152.76 384C6157.83 375.2 6164.76 368.467 6173.56 363.8C6182.36 359.133 6192.23 356.8 6203.16 356.8C6214.1 356.8 6223.96 359.133 6232.76 363.8C6241.56 368.467 6248.5 375.2 6253.56 384C6258.63 392.667 6261.16 402.733 6261.16 414.2C6261.16 425.667 6258.56 435.8 6253.36 444.6C6248.3 453.267 6241.3 459.933 6232.36 464.6C6223.56 469.267 6213.7 471.6 6202.76 471.6ZM6202.76 442C6209.3 442 6214.83 439.6 6219.36 434.8C6224.03 430 6226.36 423.133 6226.36 414.2C6226.36 405.267 6224.1 398.4 6219.56 393.6C6215.16 388.8 6209.7 386.4 6203.16 386.4C6196.5 386.4 6190.96 388.8 6186.56 393.6C6182.16 398.267 6179.96 405.133 6179.96 414.2C6179.96 423.133 6182.1 430 6186.36 434.8C6190.76 439.6 6196.23 442 6202.76 442ZM6313.51 377C6317.51 370.867 6322.51 366.067 6328.51 362.6C6334.51 359 6341.17 357.2 6348.51 357.2V393.4H6339.11C6330.57 393.4 6324.17 395.267 6319.91 399C6315.64 402.6 6313.51 409 6313.51 418.2V470H6279.31V358.4H6313.51V377ZM6433.05 470L6399.05 423.2V470H6364.85V322H6399.05V403.8L6432.85 358.4H6475.05L6428.65 414.4L6475.45 470H6433.05Z" fill="#EA2845"/>
</svg>
